<svg xmlns="http://www.w3.org/2000/svg" version="1.1" xmlns:xlink="http://www.w3.org/1999/xlink" xmlns:svgjs="http://svgjs.dev/svgjs" width="1000" height="310" viewBox="0 0 1000 310"><g transform="matrix(1,0,0,1,-0.6060606060606233,-0.02120199562514813)"><svg viewBox="0 0 396 123" data-background-color="#ffffff" preserveAspectRatio="xMidYMid meet" height="310" width="1000" xmlns="http://www.w3.org/2000/svg" xmlns:xlink="http://www.w3.org/1999/xlink"><g id="tight-bounds" transform="matrix(1,0,0,1,0.2400000000000091,0.008412404715784305)"><svg viewBox="0 0 395.52 122.98317519056842" height="122.98317519056842" width="395.52"><g><svg viewBox="0 0 593.9128526223508 184.671542278481" height="122.98317519056842" width="395.52"><g transform="matrix(1,0,0,1,198.3928526223508,57.06618705244123)"><svg viewBox="0 0 395.52 70.53916817359855" height="70.53916817359855" width="395.52"><g id="textblocktransform"><svg viewBox="0 0 395.52 70.53916817359855" height="70.53916817359855" width="395.52" id="textblock"><g><svg viewBox="0 0 395.52 70.53916817359855" height="70.53916817359855" width="395.52"><g transform="matrix(1,0,0,1,0,0)"><svg width="395.52" viewBox="0.5 -39 221.19000244140625 39.45000076293945" height="70.53916817359855" data-palette-color="#272727"><path d="M15.8-2.55Q15.7-1.1 14.28-0.55 12.85 0 9.15 0 5.45 0 2.98-0.68 0.5-1.35 0.5-2.4L0.5-2.4Q0.5-3.6 4.95-17.73 9.4-31.85 10.05-34L10.05-34Q10.3-34.65 14.08-35.08 17.85-35.5 22.18-35.5 26.5-35.5 26.95-34L26.95-34Q36.4-2.6 36.4-2.1 36.4-1.6 35.8-1.1L35.8-1.1Q34.4 0 30.25 0L30.25 0Q21.4 0 21.2-2.1L21.2-2.1 20.85-5.35 16.05-5.35 15.8-2.55ZM17.1-14.85L19.8-14.85 19.05-23.85 17.95-23.85 17.1-14.85ZM52.15-15.8L52.15-15.8 52.15-1.2Q52.15-0.65 49.32-0.33 46.5 0 43.47 0 40.45 0 39.55-0.28 38.65-0.55 38.65-1.2L38.65-1.2 38.65-25.85Q38.65-26.8 41.42-27.9 44.2-29 47.47-29 50.75-29 51.15-27.2L51.15-27.2 51.65-24.9 52-24.9Q52.7-26.8 55.35-28.13 58-29.45 60.65-29.45 63.3-29.45 64.37-28.6 65.45-27.75 65.45-26.43 65.45-25.1 65.25-23.05 65.05-21 64.27-18.6 63.5-16.2 62.25-16.2L62.25-16.2Q61.75-16.2 59.1-16.95 56.45-17.7 54.72-17.7 53-17.7 52.57-17.2 52.15-16.7 52.15-15.8ZM87.6-0.45Q86.7 0.4 83.5 0.4 80.3 0.4 78.2-0.03 76.1-0.45 74.2-1.7L74.2-1.7Q70.55-4.15 70.55-11.9L70.55-11.9 70.55-19.7 68.05-19.7Q67.5-19.7 67.1-20.85 66.7-22 66.7-24 66.7-26 67.32-27.53 67.95-29.05 68.95-29.05L68.95-29.05 70.55-29.05 70.55-35.1Q70.55-36.65 73.57-37.6 76.6-38.55 79.5-38.55L79.5-38.55Q84.05-38.55 84.05-36.3L84.05-36.3 84.05-29.05 87.75-29.05Q89.05-29.05 89.05-25.3L89.05-25.3Q89.05-22.85 88.47-21.28 87.9-19.7 87-19.7L87-19.7 84.05-19.7 84.05-10.55Q84.05-9.2 85.2-8.63 86.35-8.05 87.22-8.05 88.1-8.05 88.3-7.2 88.5-6.35 88.5-4.65L88.5-4.65Q88.5-1.3 87.6-0.45ZM105.79-25.85L105.79-25.85 105.79-1.2Q105.79-0.65 102.92-0.33 100.04 0 97.02 0 93.99 0 93.12-0.28 92.24-0.55 92.24-1.2L92.24-1.2 92.24-24.95Q92.24-26.05 95.07-27.13 97.89-28.2 101.24-28.2L101.24-28.2Q105.79-28.2 105.79-25.85ZM98.99-39L98.99-39Q102.29-39 104.17-38.02 106.04-37.05 106.04-34.5L106.04-34.5Q106.04-30 99.04-30 92.04-30 92.04-34.5 92.04-39 98.99-39ZM135.24-2.1Q133.74-1 131.07-0.28 128.39 0.45 124.17 0.45 119.94 0.45 116.14-0.25 112.34-0.95 110.69-1.8 109.04-2.65 109.04-3.45L109.04-3.45Q109.04-6.25 109.84-9.28 110.64-12.3 111.74-12.3L111.74-12.3Q111.94-12.3 115.89-10.95 119.84-9.6 121.84-9.6 123.84-9.6 124.44-10.03 125.04-10.45 125.04-11.25 125.04-12.05 123.94-12.68 122.84-13.3 121.19-13.78 119.54-14.25 117.62-15.15 115.69-16.05 114.04-17.15 112.39-18.25 111.29-20.28 110.19-22.3 110.19-24.9L110.19-24.9Q110.19-36 123.44-36L123.44-36Q128.39-36 131.99-35.38 135.59-34.75 137.07-33.98 138.54-33.2 138.54-32.45L138.54-32.45Q138.54-29.85 137.32-26.85 136.09-23.85 134.94-23.85L134.94-23.85Q134.74-23.85 133.64-24.3L133.64-24.3Q130.34-25.75 128.17-25.75 125.99-25.75 125.22-25.35 124.44-24.95 124.44-24.13 124.44-23.3 125.54-22.78 126.64-22.25 128.27-21.83 129.89-21.4 131.82-20.53 133.74-19.65 135.39-18.48 137.04-17.3 138.14-15.15 139.24-13 139.24-10.15L139.24-10.15Q139.24-7.15 137.69-4.7L137.69-4.7Q136.74-3.2 135.24-2.1ZM152.29 0.45L152.29 0.45Q146.69 0.45 144.46-2.45 142.24-5.35 142.24-12.55L142.24-12.55 142.24-26.15Q142.24-27.15 145.19-28.08 148.14-29 151.39-29L151.39-29Q155.74-29 155.74-26.75L155.74-26.75 155.74-14.05Q155.74-10.25 156.04-8.53 156.34-6.8 157.54-6.8L157.54-6.8Q159.14-6.8 159.14-8.15L159.14-8.15 159.14-26.15Q159.14-27.2 162.24-28.1 165.34-29 168.99-29 172.64-29 172.64-27.05L172.64-27.05 172.64-1.3Q172.64-0.6 169.49-0.3 166.34 0 163.29 0 160.24 0 160.19-0.8L160.19-0.8 159.69-4.05 159.29-4.05Q158.84-2.25 157.49-1.1L157.49-1.1Q156.79-0.5 155.41-0.03 154.04 0.45 152.29 0.45ZM221.69-16.5L221.69-16.5 221.69-1.2Q221.69-0.65 218.86-0.33 216.04 0 213.01 0 209.99 0 209.09-0.28 208.19-0.55 208.19-1.2L208.19-1.2 208.19-15.05Q208.19-22.2 206.74-22.2L206.74-22.2Q206.39-22.2 206.04-21.9 205.69-21.6 205.69-20.85L205.69-20.85 205.69-1.2Q205.69-0.65 202.86-0.33 200.04 0 196.99 0 193.94 0 193.06-0.28 192.19-0.55 192.19-1.2L192.19-1.2 192.19-15.05Q192.19-20.6 191.49-21.7L191.49-21.7Q191.14-22.2 190.59-22.2L190.59-22.2Q189.64-22.2 189.64-20.85L189.64-20.85 189.64-1.2Q189.64-0.65 186.79-0.33 183.94 0 180.91 0 177.89 0 177.01-0.28 176.14-0.55 176.14-1.2L176.14-1.2 176.14-25.85Q176.14-26.9 179.01-27.95 181.89-29 185.09-29 188.29-29 188.69-27.15L188.69-27.15 189.14-24.95 189.49-24.95Q190.94-27.8 194.29-29L194.29-29Q195.69-29.45 197.89-29.45L197.89-29.45Q202.29-29.45 204.29-24.95L204.29-24.95Q204.94-26.45 207.54-27.95 210.14-29.45 213.29-29.45L213.29-29.45Q218.24-29.45 219.96-26.38 221.69-23.3 221.69-16.5Z" opacity="1" transform="matrix(1,0,0,1,0,0)" fill="#272727" class="undefined-text-0" data-fill-palette-color="primary" id="text-0"></path></svg></g></svg></g></svg></g></svg></g><g><svg viewBox="0 0 181.74024795660034 184.671542278481" height="184.671542278481" width="181.74024795660034"><g><svg xmlns="http://www.w3.org/2000/svg" xmlns:xlink="http://www.w3.org/1999/xlink" version="1.1" x="0" y="0" viewBox="4 3.5 62 63" style="enable-background:new 0 0 70 70;" xml:space="preserve" height="184.671542278481" width="181.74024795660034" class="icon-icon-0" data-fill-palette-color="accent" id="icon-0"><path d="M10.041 44.479c-0.205 0.681-0.317 1.397-0.317 2.135 0 3.164 1.989 5.888 4.836 7.115v0.725c0 4.614 3.938 8.368 8.778 8.368 0.588 0 1.161-0.073 1.725-0.18C26.161 64.938 28.56 66.5 31.417 66.5c2.43 0 4.431-1.154 5.565-3H41c0.552 0 1-0.448 1-1v-4.533c2.845-0.599 5.601-1.739 8.057-3.336l3.206 3.206c0.188 0.188 0.442 0.293 0.707 0.293s0.52-0.105 0.707-0.293l5.66-5.66c0.391-0.391 0.391-1.023 0-1.414l-3.207-3.206c1.597-2.456 2.738-5.211 3.337-8.057H65c0.552 0 1-0.448 1-1v-8c0-0.552-0.448-1-1-1h-4.533c-0.599-2.845-1.74-5.601-3.337-8.056l3.207-3.207c0.391-0.391 0.391-1.023 0-1.414l-5.66-5.66c-0.375-0.375-1.039-0.375-1.414 0l-3.206 3.207C47.602 12.773 44.846 11.632 42 11.034V6.5c0-0.552-0.448-1-1-1h-4.882c-1.183-1.248-2.841-2-4.733-2-2.49 0-4.672 1.317-5.905 3.287h-1.848c-4.835 0-8.768 3.762-8.768 8.385v0.286c-4.188 0.366-7.486 3.887-7.486 8.168 0 1.802 0.594 3.464 1.586 4.818C6.055 29.92 4 33.073 4 36.32 4 40.009 6.529 43.326 10.041 44.479zM40 7.5v4.36c0 0.487 0.351 0.903 0.831 0.986 3.124 0.538 6.158 1.794 8.774 3.633 0.397 0.279 0.938 0.231 1.282-0.112l3.083-3.083 4.246 4.246-3.083 3.083c-0.344 0.344-0.391 0.884-0.112 1.282 1.839 2.618 3.096 5.652 3.634 8.774C58.737 31.149 59.153 31.5 59.64 31.5H64v6h-4.36c-0.487 0-0.903 0.351-0.985 0.831-0.538 3.123-1.794 6.157-3.634 8.774-0.279 0.397-0.232 0.938 0.112 1.282l3.083 3.083-4.246 4.246-3.083-3.083c-0.343-0.342-0.885-0.391-1.282-0.111-2.618 1.839-5.652 3.095-8.774 3.633C40.351 56.237 40 56.653 40 57.14V61.5h-2.207c0.128-0.55 0.202-1.128 0.202-1.737V49.45C45.802 48.933 52 42.435 52 34.5s-6.198-14.433-14.005-14.95v-9.124c0-1.06-0.21-2.045-0.582-2.926H40zM37.995 47.45V21.55C44.699 22.062 50 27.667 50 34.5S44.699 46.938 37.995 47.45zM10.438 29.994c1.409 1.135 3.197 1.818 5.145 1.818 0.552 0 1-0.448 1-1s-0.448-1-1-1c-3.421 0-6.205-2.775-6.205-6.186 0-3.421 2.784-6.205 6.205-6.205 1.654 0 3.207 0.644 4.374 1.813 0.391 0.391 1.023 0.391 1.414 0.002 0.391-0.391 0.392-1.023 0.002-1.415-1.239-1.241-2.808-2.025-4.509-2.291v-0.358c0-3.521 3.036-6.385 6.768-6.385h0.999c-0.134 0.539-0.213 1.1-0.213 1.68 0 0.315 0.023 0.618 0.058 0.921 0.064 0.548 0.563 0.951 1.108 0.878 0.549-0.063 0.942-0.56 0.878-1.108-0.026-0.227-0.044-0.455-0.044-0.691C26.418 7.729 28.646 5.5 31.385 5.5c2.671 0 4.61 2.072 4.61 4.926v49.337c0 2.789-1.883 4.737-4.578 4.737-2.803 0-4.999-2.063-4.999-4.696 0-0.699 0.153-1.407 0.441-2.047 0.228-0.503 0.004-1.096-0.499-1.322-0.503-0.227-1.095-0.003-1.323 0.499-0.411 0.909-0.619 1.875-0.619 2.87 0 0.314 0.029 0.619 0.071 0.92-0.379 0.06-0.764 0.097-1.151 0.098-3.738 0-6.779-2.857-6.778-6.368v-0.146c0.446 0.072 0.902 0.118 1.369 0.118 1.256 0 2.461-0.264 3.583-0.786 0.501-0.232 0.718-0.827 0.486-1.328-0.233-0.501-0.828-0.719-1.329-0.485-0.856 0.397-1.778 0.599-2.74 0.599-3.421 0-6.205-2.607-6.205-5.812 0-3.02 2.506-5.572 5.705-5.812 0.551-0.041 0.964-0.521 0.922-1.072-0.041-0.551-0.52-0.965-1.072-0.922-2.732 0.205-5.077 1.708-6.401 3.835C8.378 41.887 6 39.474 6 36.32 6 33.601 7.881 30.983 10.438 29.994z" fill="#f05308" data-fill-palette-color="accent"></path><path d="M19.487 25.947c0.479 0.082 1.034 0.131 1.635 0.131 3.172 0 7.606-1.39 8.693-6.828 0.108-0.542-0.243-1.068-0.784-1.177-0.544-0.107-1.069 0.243-1.177 0.784-1.234 6.167-7.753 5.165-8.033 5.118-0.542-0.091-1.059 0.275-1.152 0.818C18.577 25.337 18.943 25.854 19.487 25.947z" fill="#f05308" data-fill-palette-color="accent"></path><path d="M26.914 44.341c-2.156-1.24-4.37-0.65-4.465-0.624-0.53 0.146-0.839 0.691-0.696 1.222 0.143 0.531 0.692 0.847 1.222 0.707 0.404-0.106 4.013-0.896 5.318 4.05 0.118 0.448 0.523 0.745 0.967 0.745 0.084 0 0.17-0.011 0.256-0.033 0.534-0.141 0.853-0.688 0.711-1.222C29.62 46.886 28.505 45.256 26.914 44.341z" fill="#f05308" data-fill-palette-color="accent"></path></svg></g></svg></g></svg></g><defs></defs></svg><rect width="395.52" height="122.98317519056842" fill="none" stroke="none" visibility="hidden"></rect></g></svg></g></svg>